<svg width="341" height="111" viewBox="0 0 341 111" fill="none" xmlns="http://www.w3.org/2000/svg">
<path d="M61.9276 29.8037H70.1677L74.0817 30.3919L79.2317 31.7645L84.3818 33.7253L87.8838 35.49L91.1798 37.6468L94.4758 40.1958L97.3598 42.9409L99.2138 45.0978L100.656 46.8625L102.51 49.6076L104.776 53.7252L106.63 58.4311L107.866 63.7252L108.278 67.6467V73.5291L107.866 76.6663L106.63 81.7643L105.394 85.2937L102.716 90.5878L101.068 92.9408L99.2138 95.2937L96.9478 97.8427L93.4458 101.176L90.1498 103.529L86.8538 105.49L83.5578 107.058L81.4977 107.843L77.1717 109.215L72.8457 110.196L69.3437 110.588H62.3396L58.4256 110.196L52.6576 108.823L48.7436 107.451L45.4476 105.882L42.5636 104.313L38.8555 101.764L36.7955 99.9996L33.0875 96.4702L31.0275 93.9212L28.9675 90.98L26.7015 86.8624L25.0535 82.7447L23.8175 78.2349L23.1995 74.9016L22.9935 70.3918L23.1995 65.686L24.0235 61.3722L25.0535 57.6468L26.2895 54.5095L28.7615 49.8036L30.2035 47.6468L32.0575 45.2939L34.3235 42.7448L37.4135 39.8037L40.5035 37.4507L44.0056 35.2939L48.7436 32.941L51.6276 31.9606L54.9236 30.9802L58.6316 30.1959L61.9276 29.8037ZM55.1296 53.137L53.0696 54.1174L51.6276 55.686L51.2156 57.4507V83.333L51.8336 84.9016L53.2756 86.4702L54.9236 87.2545H56.9836L58.8376 86.4702L63.9877 83.7251L66.8717 82.1565L72.2277 79.2153L76.7597 76.6663L80.0557 74.9016L82.3218 73.333L83.3518 72.1565L83.5578 71.3722V69.0193L82.7338 67.4507L81.0857 66.0781L77.3777 64.1173L72.4337 61.3722L68.1077 59.0193L62.7517 56.0781L58.0136 53.5291L56.7776 53.137H55.1296Z" fill="white"/>
<path d="M43.1816 0L46.8896 0.392156L90.9738 8.62742L101.274 10.5882L102.304 10.9804L102.51 11.3725V12.7451L100.656 14.7058L94.2698 21.1764L92.4158 22.9411L90.9738 24.5097L89.3258 26.0784L89.1198 26.4705L87.6778 26.2744L83.3518 24.5097L78.8197 23.1372L73.6697 22.1568L70.7857 21.7646L67.6957 21.5686H63.7817L59.0436 21.9607L54.3056 22.745L49.1556 24.1176L45.0356 25.6862L41.5336 27.2548L38.4435 29.0195L35.9715 30.5881L33.2935 32.5489L30.4095 34.9019L28.1435 37.0587L26.7015 38.6273L24.0235 41.9607L22.5815 43.9214L21.5515 45.4901L19.6974 45.294L17.0194 44.7057L16.8134 59.9998L16.4014 60.7841L15.9894 60.9802H14.5474L13.7234 60.1959L13.5174 59.4116V43.9214L7.95538 42.941L1.36335 41.5685L0.539345 41.1763L0.333344 40.7842V39.4116L7.54338 32.5489L9.19139 31.1764L11.2514 29.2156L12.2814 28.8234L13.5174 29.4117L13.9294 30.7842V39.0195L14.1354 43.7254L16.6074 44.3136V24.7058L17.2254 23.7254L21.5515 19.6078L23.1995 18.2352L27.1135 14.5098L28.7615 13.1372L33.7055 8.43135L35.3535 7.0588L39.6795 2.94117H40.0915V2.54901L41.7396 1.17647L43.1816 0ZM63.7817 8.8235L56.5716 9.41174L50.1856 10.5882L44.6236 12.1568L39.4735 14.1176L36.1775 15.6862L33.0875 17.2548L32.4695 18.0392L32.6755 19.2156L33.7055 19.9999L34.9415 19.8039L39.2675 17.647L43.1816 16.0784L45.8596 15.098L50.8036 13.7254L55.9536 12.7451L61.7217 12.1568L64.3997 11.9607L65.4297 11.5686L65.8417 10.9804L65.6357 9.80389L64.6057 8.8235H63.7817ZM58.6316 15.2941L52.8636 16.2745L48.9496 17.2548L45.2416 18.4313L42.1516 19.6078L41.5336 20.196V21.7646L42.3576 22.549L43.7996 22.3529L49.5676 20.3921L53.2756 19.4117L59.0436 18.4313L60.0737 17.8431L60.2797 17.647V16.4705L59.4556 15.4901L58.6316 15.2941Z" fill="white"/>
<path d="M132.792 39.0195H140.208L142.886 39.8038L144.74 40.9803L146.182 42.5489L147.006 44.5097V47.4509L145.976 49.4117L144.328 50.9803L143.504 51.1764V51.5685L144.946 51.9607L147.006 53.5293L148.242 55.4901L148.654 56.6665V59.2155L148.036 60.9802L146.594 62.941L144.946 64.3136L142.886 65.294L141.238 65.6861H137.324L134.852 65.294L135.058 64.3136L136.5 62.7449L137.53 62.3528L140.208 62.1567L141.856 61.5685L143.092 60.1959L143.504 59.2155V56.8626L142.68 55.294L140.826 54.1175L138.766 53.5293L137.53 53.3332H133.41V65.294H128.672V39.8038L129.908 39.4117L132.792 39.0195ZM136.088 42.1568L133.41 42.3529V50.196H137.942L140.002 49.6077L141.65 48.2352L142.268 46.6666L142.062 44.9019L141.238 43.5293L139.796 42.5489L137.736 42.1568H136.088Z" fill="white"/>
<path d="M241.149 76.2742H245.269L248.359 77.0585L251.037 78.431L253.509 80.784L254.745 82.7447L255.775 85.4898L256.187 87.6467V91.9604L255.363 95.0976L253.715 98.2349L251.449 100.588L248.771 102.156L246.505 102.941L245.475 103.137H240.119L237.441 102.353L235.175 101.176L233.115 99.4114L231.261 96.6663L230.231 94.1173L229.819 92.1565V87.4506L230.643 84.3134L232.085 81.5683L233.527 79.8036L235.587 78.2349L238.471 76.8624L241.149 76.2742ZM241.767 79.6075L239.707 80.1957L238.059 81.3722L236.617 82.9408L235.587 84.9016L234.969 87.0585L234.763 88.6271V90.5879L235.175 93.3329L236.205 95.6859L237.441 97.4506L239.089 98.8231L241.149 99.8035L243.827 99.9996L245.887 99.4114L247.741 98.2349L249.389 96.4702L250.625 94.1173L251.243 90.7839V88.8232L250.831 86.0781L249.801 83.529L248.565 81.9604L246.917 80.5879L245.063 79.8036L244.239 79.6075H241.767Z" fill="white"/>
<path d="M197.888 38.2351H202.42L202.626 61.9605L205.098 62.3527L207.158 62.1566L208.806 61.1762L209.836 59.8037L210.454 58.039L210.66 56.6664V54.7056L210.248 52.5488L209.218 50.9802V50.588L208.394 50.1959L205.716 49.8037L204.274 48.6272L203.862 48.039V47.2547L205.922 46.6665H209.836L211.896 47.6468L213.544 49.0194L214.78 50.9802L215.604 53.137L215.81 54.7056V57.0586L215.192 59.6076L213.956 61.9605L212.308 63.7252L210.866 64.7056L208.806 65.4899L207.776 65.686H203.038L200.566 65.0978L198.094 64.1174L197.888 63.9213L197.682 41.1763L197.888 38.2351Z" fill="white"/>
<path d="M190.678 83.9214H193.562L195.622 84.3135L197.476 85.2939L198.918 86.6665L199.948 88.8233L200.154 89.8037L200.36 99.4115L200.772 102.549L200.566 102.745H197.064L196.24 101.764L196.034 100.784L192.944 102.745L191.502 103.137H188.412L186.764 102.549L184.91 100.98L184.086 99.4115L183.88 98.6272V97.0586L184.704 95.0978L186.146 93.7253L188.206 92.7449L191.296 91.9606L194.18 91.5684L194.386 92.1567L193.768 93.5292L192.944 94.5096L189.236 95.6861L188.824 96.6664V98.2351L189.442 99.2155L190.266 99.6076H192.326L194.18 98.6272L195.416 97.4508V90.392L194.798 88.8233L193.356 87.6469L192.738 87.4508H189.648L186.764 88.039L185.94 85.8822L186.146 84.9018L189.03 84.1175L190.678 83.9214Z" fill="white"/>
<path d="M226.935 46.4705H230.437L232.703 47.2548L233.939 48.0391L235.381 49.6077L236.205 51.3724L236.411 52.1567V54.9018L235.999 56.6665L235.381 56.8626L225.081 56.6665L225.699 55.294L226.523 54.3136L227.347 53.9214H232.085L231.673 51.7646L230.849 50.5881L230.025 49.9999L229.407 49.8038H227.553L225.905 50.5881L224.669 52.1567L224.051 54.3136V57.2547L224.669 59.2155L225.699 60.7841L226.935 61.7645L227.965 62.1567H231.261L233.733 61.3724L234.763 61.1763L235.793 63.5292V64.3135L232.085 65.49L230.849 65.6861H226.729L224.669 65.0979L222.608 63.7253L221.166 62.3528L219.93 59.9998L219.106 56.8626V54.7057L219.724 52.1567L220.96 49.8038L222.814 48.0391L225.081 46.8626L226.935 46.4705Z" fill="white"/>
<path d="M160.808 83.9214H164.516L166.37 84.5096L168.224 85.6861L169.666 87.4508L170.49 89.9998V92.1567L169.872 94.1174H159.16L159.572 92.941L160.602 91.7645L161.838 91.3723H166.164L165.546 89.0194L164.516 87.6469L163.486 87.2547H161.426L160.19 87.8429L158.748 89.4116L158.13 91.1763V95.0978L158.954 97.2547L160.396 98.8233L162.044 99.6076H165.134L167.812 98.8233L168.842 98.6272L169.872 100.98L169.666 101.764L166.782 102.745L164.722 103.137H160.808L158.336 102.353L156.688 101.176L155.246 99.8037L153.804 97.0586L153.186 94.7057V91.5684L154.01 89.0194L155.04 87.2547L156.276 85.8822L158.13 84.7057L160.808 83.9214Z" fill="white"/>
<path d="M331.171 83.9214H334.879L336.939 84.5096L338.793 85.8822L340.029 87.4508L340.647 88.8233L340.853 89.8037V92.3527L340.235 94.1174H329.523L329.935 92.941L331.377 91.5684L331.995 91.3723H336.527L335.909 88.8233L334.879 87.6469L333.849 87.2547H331.995L330.347 88.039L329.317 89.2155L328.699 90.588L328.493 91.5684V95.0978L329.317 97.2547L330.759 98.8233L332.407 99.6076L334.261 99.8037L337.145 99.2155L338.587 98.6272L339.411 98.8233L340.235 100.98L340.029 101.764L337.351 102.745L335.085 103.137H331.171L328.905 102.353L327.051 101.176L325.403 99.4115L324.167 97.0586L323.755 95.6861L323.549 92.941L323.961 90.1959L324.991 87.8429L326.845 85.8822L328.699 84.7057L330.141 84.1175L331.171 83.9214Z" fill="white"/>
<path d="M12.0754 28.8235L13.5174 29.4117L13.9294 30.7843V39.0195L14.1354 43.7254L16.6074 44.3136L16.8134 44.7058V59.9999L16.4014 60.7842L15.9894 60.9802H14.5474L13.7234 60.1959L13.5174 59.4116V43.9215L7.95538 42.9411L1.36335 41.5685L0.539345 41.1764L0.333344 40.7842V39.4117L7.54338 32.549L9.19139 31.1764L11.2514 29.2156L12.0754 28.8235Z" fill="white"/>
<path d="M144.122 76.8625H149.478L148.86 77.8429L145.976 81.3723L143.504 84.5096L141.444 87.0586L141.856 88.2351L145.358 93.7252L148.86 99.4115L150.714 102.353V102.745H145.358L144.122 100.784L141.238 95.4899L138.766 91.1762L138.148 90.588L137.736 91.5684L135.882 93.9213H135.264L135.058 92.5488V90.9802L135.882 88.039L137.118 86.0782L140.002 82.3527L142.68 78.8233L144.122 76.8625Z" fill="white"/>
<path d="M209.836 83.9214H211.896L214.78 84.3135L216.428 84.9018L215.81 86.8626L215.398 87.8429L213.338 87.4508H209.836L209.012 88.039L208.806 89.4116L209.424 90.392L214.162 92.7449L216.222 94.1174L217.458 95.6861L217.664 96.4704V98.8233L216.634 100.784L214.986 102.157L213.132 102.941L211.896 103.137H209.63L206.746 102.745L204.274 101.961L203.656 101.568L204.274 99.6076L204.686 98.6272L205.716 98.8233L209.012 99.6076H211.484L212.72 98.8233L213.132 98.039L212.926 96.8625L211.896 95.8821L206.952 93.5292L205.098 91.9606L204.274 90.392L204.068 89.0194L204.48 87.2547L205.304 86.0782L206.952 84.7057L208.394 84.1175L209.836 83.9214Z" fill="white"/>
<path d="M128.672 76.8625H133.616V102.549L133.41 102.745H128.878L128.672 102.549V76.8625Z" fill="white"/>
<path d="M175.228 75.686H179.76V102.549L179.554 102.745H175.228L175.022 86.0782V79.0194L175.228 75.686Z" fill="white"/>
<path d="M241.149 38.2351H245.681L245.887 38.8233L245.681 65.2938H241.149V38.2351Z" fill="white"/>
<path d="M282.555 75.686H287.087V102.745H282.761L282.555 102.549V75.686Z" fill="white"/>
<path d="M269.783 83.9214H273.079L275.139 84.9018L276.375 86.2743L276.993 88.2351V102.745H272.461L272.255 102.549L272.049 88.4312L271.637 87.4508H267.723L266.075 86.2743L265.663 85.6861L267.311 84.7057L269.783 83.9214Z" fill="white"/>
<path d="M312.013 83.9214H315.103L317.163 84.7057L318.399 86.0782L319.017 87.4508L319.223 88.4312V102.549L319.017 102.745H314.485L314.279 88.4312L313.455 87.4508H309.953L308.305 86.2743L307.893 85.49L311.189 84.1175L312.013 83.9214Z" fill="white"/>
<path d="M185.322 46.4705H187.794L189.648 47.0587L190.884 48.0391L191.914 49.8038L192.12 50.5881V65.2939H187.588L187.382 51.7646L186.558 50.1959L186.352 49.9999H182.438L180.584 48.4312V48.0391L183.468 46.8626L185.322 46.4705Z" fill="white"/>
<path d="M173.374 46.4705H176.258L177.906 47.0587L179.348 48.4312L180.172 50.5881V65.2939H175.64L175.434 51.5685L174.816 50.1959L174.404 49.9999H170.902L169.048 48.4312V48.0391L170.696 47.2548L173.374 46.4705Z" fill="white"/>
<path d="M292.443 84.3135H297.181V102.745H292.649L292.443 102.549V84.3135Z" fill="white"/>
<path d="M153.186 46.8625H157.924V65.0978L157.718 65.2939H153.186V46.8625Z" fill="white"/>
<path d="M163.074 46.8625H166.782L168.018 48.6272L168.224 49.4116V65.2939H163.486L163.28 49.2155L162.868 47.0586L163.074 46.8625Z" fill="white"/>
<path d="M301.713 84.3135H305.627L306.657 85.4899L307.069 87.0586V102.549L306.863 102.745H302.537L302.331 102.549L302.125 86.8625L301.713 84.3135Z" fill="white"/>
<path d="M259.689 84.3135H263.603L264.633 85.8821L264.839 87.0586V102.549L264.633 102.745H260.307L260.101 102.549L259.895 86.4703L259.689 84.3135Z" fill="white"/>
<path d="M13.9294 43.7253L16.6074 44.3136L16.8134 44.7057V59.9998L16.4014 60.7841L15.9894 60.9802H14.5474L13.7234 60.1959L13.5174 59.4116V44.1175H13.9294V43.7253Z" fill="white"/>
<path d="M294.091 76.2742H295.739L296.975 77.0585L297.593 77.8428L297.799 79.4114L297.181 80.5879L295.945 81.5683H293.885L292.649 80.784L292.031 79.6075V78.2349L292.855 77.0585L294.091 76.2742Z" fill="white"/>
<path d="M155.04 38.8235L156.894 39.0196L157.924 40L158.336 40.7843V42.3529L157.512 43.5294L156.688 44.1176H154.422L152.98 42.9411L152.774 42.549V40.5882L153.598 39.4117L155.04 38.8235Z" fill="white"/>
</svg>
